<?xml version="1.0" encoding="UTF-8"?>
<svg id="a" data-name="Layer 1" xmlns="http://www.w3.org/2000/svg" viewBox="0 0 251.006 82.145">
  <defs>
    <style>
      .b {
        fill: none;
      }

      .c {
        fill: #fff;
      }
    </style>
  </defs>
  <g>
    <path class="c" d="M75.012,2.648C73.309.944,71.048.009,68.643.009s-4.66.935-6.359,2.633l-13.613,13.584c-1.701,1.701-2.639,3.963-2.64,6.367,0,2.406.935,4.665,2.637,6.365,1.699,1.701,3.959,2.639,6.363,2.639s4.661-.936,6.365-2.633l13.61-13.588c3.509-3.508,3.511-9.217.008-12.726Z"/>
    <path class="c" d="M75.004,62.285l-13.61-13.586c-1.703-1.699-3.965-2.634-6.365-2.634s-4.663.938-6.363,2.638c-1.701,1.699-2.639,3.961-2.637,6.365.002,2.405.939,4.665,2.64,6.368l13.613,13.584c1.696,1.697,3.957,2.633,6.359,2.633h0c2.406,0,4.666-.937,6.369-2.639,3.503-3.509,3.501-9.22-.008-12.729Z"/>
    <path class="c" d="M47.767,38.828h0v-.03c-.006-2.394-.937-4.644-2.627-6.337L15.346,2.642C13.646.941,11.386.001,8.983.001S4.324.937,2.627,2.634c-3.502,3.503-3.503,9.206-.003,12.715l23.453,23.479L2.623,62.305c-3.501,3.509-3.499,9.214.004,12.713,1.697,1.697,3.955,2.633,6.357,2.633s4.661-.937,6.363-2.637l29.792-29.824c1.691-1.689,2.623-3.939,2.627-6.333.002-.008.002-.02.002-.03h0Z"/>
  </g>
  <g>
    <path class="c" d="M105.478,64.106l4.219,11.25,4.237-11.25h2.438v13.388h-1.688v-11.138h-.037l-4.182,11.138h-1.519l-4.182-11.138h-.037v11.138h-1.688v-13.388h2.438Z"/>
    <path class="c" d="M122.765,67.575c2.412,0,3.619.869,3.619,2.606v5.588c0,.362.168.543.506.543.162,0,.325-.03.487-.094v1.238c-.312.175-.693.262-1.144.262-.9,0-1.35-.499-1.35-1.5-.851,1.001-1.988,1.5-3.413,1.5-1,0-1.784-.234-2.353-.703-.569-.469-.854-1.141-.854-2.016,0-.862.281-1.55.844-2.062.562-.512,1.868-.899,3.919-1.162.699-.087,1.172-.222,1.415-.403.244-.181.366-.446.366-.797,0-1.062-.719-1.594-2.156-1.594-.788,0-1.378.147-1.772.44-.394.294-.609.76-.646,1.397h-1.594c.125-2.163,1.5-3.244,4.125-3.244ZM119.953,74.887c0,.45.162.8.487,1.05.325.251.788.375,1.388.375.862,0,1.571-.212,2.128-.637s.835-.932.835-1.52v-1.668c-.288.199-.663.331-1.125.394l-1.632.243c-.712.101-1.237.291-1.575.572-.337.281-.506.678-.506,1.19Z"/>
    <path class="c" d="M133.49,67.575c2.225,0,3.338,1.156,3.338,3.469v6.45h-1.594v-6.619c0-.537-.169-.987-.507-1.35-.337-.362-.831-.544-1.481-.544-.912,0-1.615.275-2.109.825-.493.55-.74,1.269-.74,2.156v5.531h-1.594v-9.693h1.5v1.537h.037c.7-1.175,1.75-1.763,3.15-1.763Z"/>
    <path class="c" d="M144.065,67.575c1.375,0,2.463.466,3.263,1.397.8.931,1.2,2.165,1.2,3.703,0,1.512-.403,2.73-1.21,3.656-.806.925-1.878,1.387-3.216,1.387-.6,0-1.188-.121-1.762-.365-.575-.244-1.031-.628-1.369-1.153h-.037v5.007h-1.594v-13.406h1.594v1.312h.037c.513-1.025,1.544-1.538,3.094-1.538ZM140.878,72.637c0,1.125.266,2.019.797,2.682.531.662,1.284.993,2.26.993.925,0,1.641-.328,2.146-.984s.76-1.577.76-2.766c0-1.062-.272-1.925-.816-2.587-.543-.663-1.277-.994-2.203-.994-.899,0-1.615.325-2.146.976-.531.649-.797,1.544-.797,2.681Z"/>
    <path class="c" d="M154.49,67.575c1.449,0,2.597.463,3.44,1.388s1.266,2.156,1.266,3.693c0,1.476-.422,2.688-1.266,3.638-.844.95-1.991,1.425-3.44,1.425-1.426,0-2.566-.459-3.422-1.378-.856-.919-1.285-2.146-1.285-3.685,0-1.55.422-2.784,1.266-3.703.844-.918,1.991-1.378,3.441-1.378ZM151.47,72.656c0,1.088.281,1.969.844,2.645.562.675,1.288,1.012,2.176,1.012.874,0,1.597-.334,2.165-1.003.569-.668.854-1.553.854-2.653,0-1.087-.281-1.972-.844-2.652-.562-.682-1.294-1.022-2.194-1.022-.862,0-1.578.344-2.146,1.031-.569.688-.854,1.569-.854,2.644Z"/>
    <path class="c" d="M161.483,67.8l2.193,7.931h.038l1.95-7.931h1.743l2.044,7.931h.019l2.175-7.931h1.65l-3.075,9.675-.019.019h-1.688l-1.987-7.706h-.019l-1.95,7.706h-1.726l-3.112-9.693h1.763Z"/>
    <path class="c" d="M178.283,67.575c1.375,0,2.45.494,3.225,1.481.775.987,1.163,2.281,1.163,3.881v.188h-7.257v.113c0,.938.27,1.685.807,2.24.537.557,1.275.834,2.213.834,1.387,0,2.225-.631,2.512-1.894h1.575c-.213,1.088-.682,1.91-1.406,2.466-.725.557-1.638.834-2.737.834-1.525,0-2.682-.499-3.469-1.5-.787-1-1.182-2.212-1.182-3.637,0-1.438.432-2.632,1.294-3.582.862-.949,1.95-1.425,3.263-1.425ZM180.983,71.718c-.05-.787-.335-1.44-.854-1.959s-1.172-.778-1.959-.778c-.738,0-1.362.247-1.875.741-.513.493-.807,1.159-.882,1.996h5.569Z"/>
    <path class="c" d="M189.364,67.575v1.688c-1.199,0-2.084.316-2.652.947-.569.631-.854,1.615-.854,2.953v4.331h-1.594v-9.693h1.5v2.043h.037c.737-1.512,1.851-2.269,3.338-2.269h.225Z"/>
    <path class="c" d="M197.296,63.787c1.587,0,2.89.378,3.909,1.134,1.019.757,1.634,1.859,1.847,3.31h-1.781c-.175-.949-.606-1.678-1.294-2.185-.688-.506-1.581-.759-2.681-.759-1.388,0-2.501.513-3.338,1.537-.837,1.025-1.256,2.406-1.256,4.144,0,1.513.422,2.782,1.265,3.807.845,1.025,1.953,1.537,3.329,1.537,1.237,0,2.262-.381,3.074-1.144.812-.762,1.219-1.769,1.219-3.019v-.206h-4.274v-1.5h5.868v7.05h-1.125l-.469-1.669c-.487.638-1.105,1.128-1.855,1.472s-1.563.516-2.438.516c-1.825,0-3.345-.649-4.557-1.949-1.212-1.301-1.818-2.9-1.818-4.801,0-2.125.565-3.868,1.696-5.23,1.132-1.362,2.69-2.044,4.679-2.044Z"/>
    <path class="c" d="M210.796,67.575v1.688c-1.2,0-2.085.316-2.653.947-.569.631-.854,1.615-.854,2.953v4.331h-1.594v-9.693h1.5v2.043h.038c.737-1.512,1.85-2.269,3.337-2.269h.226Z"/>
    <path class="c" d="M215.744,67.575c1.45,0,2.598.463,3.441,1.388s1.266,2.156,1.266,3.693c0,1.476-.422,2.688-1.266,3.638-.844.95-1.991,1.425-3.441,1.425-1.425,0-2.565-.459-3.422-1.378-.855-.919-1.284-2.146-1.284-3.685,0-1.55.422-2.784,1.266-3.703.844-.918,1.99-1.378,3.44-1.378ZM212.725,72.656c0,1.088.281,1.969.844,2.645.562.675,1.287,1.012,2.175,1.012.875,0,1.597-.334,2.166-1.003.568-.668.854-1.553.854-2.653,0-1.087-.281-1.972-.844-2.652-.562-.682-1.294-1.022-2.194-1.022-.862,0-1.578.344-2.146,1.031-.569.688-.854,1.569-.854,2.644Z"/>
    <path class="c" d="M223.695,67.8v6.6c0,.562.175,1.021.524,1.378.351.356.832.534,1.444.534.938,0,1.649-.274,2.138-.824.487-.551.73-1.269.73-2.156v-5.531h1.594v9.693h-1.5v-1.537h-.037c-.663,1.175-1.713,1.762-3.15,1.762-2.225,0-3.337-1.149-3.337-3.449v-6.469h1.594Z"/>
    <path class="c" d="M236.969,67.575c1.375,0,2.462.466,3.263,1.397.8.931,1.199,2.165,1.199,3.703,0,1.512-.402,2.73-1.209,3.656-.807.925-1.878,1.387-3.216,1.387-.6,0-1.188-.121-1.763-.365-.574-.244-1.031-.628-1.368-1.153h-.038v5.007h-1.594v-13.406h1.594v1.312h.038c.513-1.025,1.544-1.538,3.094-1.538ZM233.782,72.637c0,1.125.266,2.019.797,2.682.531.662,1.284.993,2.259.993.926,0,1.641-.328,2.147-.984.506-.656.759-1.577.759-2.766,0-1.062-.271-1.925-.815-2.587-.544-.663-1.278-.994-2.203-.994-.899,0-1.615.325-2.146.976-.531.649-.797,1.544-.797,2.681Z"/>
  </g>
  <g>
    <rect class="b" x="99.46" y="14.521" width="151.548" height="45.871"/>
    <path class="c" d="M124.585,14.52v3.52h-17.512v9.988h16.323v3.521h-16.323v10.868h17.644v3.52h-21.824V14.52h21.692Z"/>
    <path class="c" d="M132.812,23.188l5.412,7.92h.044l5.677-7.92h4.487l-7.832,10.472,8.801,12.276h-4.797l-6.336-9.416-6.336,9.416h-4.531l8.535-11.968-7.92-10.78h4.796Z"/>
    <path class="c" d="M162.732,22.659c3.227,0,5.778,1.094,7.656,3.278,1.877,2.186,2.815,5.082,2.815,8.69,0,3.549-.946,6.409-2.838,8.58s-4.407,3.256-7.546,3.256c-1.408,0-2.787-.286-4.136-.858-1.35-.572-2.42-1.474-3.212-2.706h-.088v11.748h-3.74v-31.46h3.74v3.08h.088c1.202-2.405,3.622-3.608,7.26-3.608ZM155.252,34.539c0,2.641.623,4.738,1.87,6.293s3.015,2.331,5.302,2.331c2.171,0,3.851-.77,5.038-2.31,1.188-1.54,1.782-3.703,1.782-6.49,0-2.492-.638-4.517-1.914-6.071-1.275-1.555-2.999-2.332-5.17-2.332-2.112,0-3.791.763-5.038,2.287-1.247,1.526-1.87,3.624-1.87,6.292Z"/>
    <path class="c" d="M186.272,22.659c3.226,0,5.748,1.159,7.567,3.477,1.818,2.317,2.729,5.354,2.729,9.107v.44h-17.028v.264c0,2.2.631,3.953,1.892,5.258,1.262,1.306,2.992,1.958,5.192,1.958,3.256,0,5.221-1.48,5.896-4.443h3.695c-.499,2.552-1.599,4.48-3.3,5.786s-3.843,1.958-6.424,1.958c-3.579,0-6.292-1.173-8.14-3.521-1.849-2.347-2.772-5.191-2.772-8.536,0-3.372,1.012-6.174,3.036-8.403,2.023-2.229,4.576-3.345,7.656-3.345ZM192.608,32.384c-.118-1.849-.785-3.381-2.002-4.599-1.218-1.217-2.75-1.825-4.599-1.825-1.73,0-3.197.579-4.399,1.737-1.203,1.159-1.893,2.722-2.068,4.687h13.068Z"/>
    <path class="c" d="M211.748,22.659v3.96c-2.816,0-4.892.741-6.227,2.223s-2.002,3.791-2.002,6.93v10.164h-3.74v-22.748h3.521v4.796h.088c1.73-3.549,4.341-5.324,7.832-5.324h.528Z"/>
    <path class="c" d="M218.523,14.52v4.576h-3.74v-4.576h3.74ZM218.523,23.188v22.748h-3.74v-22.748h3.74Z"/>
    <path class="c" d="M231.15,22.659c3.08,0,5.36.595,6.842,1.782,1.481,1.188,2.295,2.97,2.442,5.346h-3.74v-.044c-.117-1.231-.653-2.17-1.605-2.815-.954-.646-2.179-.968-3.674-.968s-2.678.249-3.542.748c-.866.499-1.299,1.217-1.299,2.155,0,.852.381,1.533,1.145,2.046.763.514,1.921.946,3.476,1.299l3.521.792c2.2.499,3.872,1.239,5.016,2.222,1.145.983,1.716,2.34,1.716,4.07,0,2.259-.865,4.019-2.596,5.279-1.731,1.262-4.092,1.893-7.084,1.893-2.904,0-5.207-.639-6.908-1.914-1.701-1.276-2.611-3.205-2.728-5.786h3.739c.059,1.408.616,2.493,1.673,3.256,1.056.763,2.536,1.144,4.443,1.144,3.667,0,5.5-1.128,5.5-3.388,0-.997-.447-1.789-1.342-2.376-.896-.586-2.809-1.188-5.742-1.804-2.787-.557-4.781-1.335-5.983-2.332-1.203-.997-1.805-2.376-1.805-4.136,0-1.937.771-3.498,2.311-4.687,1.54-1.188,3.614-1.782,6.226-1.782Z"/>
  </g>
  <path class="c" d="M239.952,16.23c.18-.41.426-.765.736-1.067s.672-.538,1.085-.71c.413-.172.851-.257,1.315-.257s.901.086,1.311.257.769.409,1.076.71c.307.301.551.657.732,1.067s.271.853.271,1.329c0,.488-.09.939-.271,1.351-.181.413-.425.772-.732,1.076-.307.304-.666.541-1.076.71-.41.169-.847.253-1.311.253s-.902-.084-1.315-.253c-.413-.168-.775-.405-1.085-.71s-.556-.663-.736-1.076c-.181-.413-.271-.863-.271-1.351,0-.476.09-.919.271-1.329ZM240.508,18.711c.142.352.338.658.588.917.25.259.545.463.886.61.341.148.71.221,1.107.221.392,0,.756-.074,1.094-.221.338-.147.631-.351.881-.61.25-.259.447-.565.588-.917.142-.353.213-.737.213-1.153,0-.403-.071-.78-.213-1.13-.141-.349-.338-.652-.588-.908-.25-.256-.544-.458-.881-.605-.338-.148-.702-.221-1.094-.221-.397,0-.767.074-1.107.221-.341.147-.636.349-.886.605-.25.256-.446.559-.588.908-.141.35-.213.726-.213,1.13,0,.416.071.8.213,1.153ZM243.297,15.597c.47,0,.818.093,1.044.28.227.187.339.47.339.85,0,.356-.099.616-.298.782-.199.166-.447.264-.742.294l1.13,1.745h-.66l-1.075-1.699h-.651v1.699h-.615v-3.95h1.528ZM243.025,17.351c.139,0,.27-.004.394-.014.124-.009.233-.035.33-.077.096-.042.173-.107.23-.194.057-.087.086-.209.086-.366,0-.132-.026-.238-.077-.316-.051-.078-.118-.138-.199-.181-.082-.042-.175-.071-.28-.086-.106-.015-.21-.022-.312-.022h-.814v1.256h.641Z"/>
</svg>