<svg viewBox="0 0 247.76 81.22" xmlns="http://www.w3.org/2000/svg" xmlns:xlink="http://www.w3.org/1999/xlink" id="Layer_1" overflow="hidden"><defs/><path d="M241.24 16.24C241.41 15.84 241.66 15.48 241.98 15.17 242.29 14.87 242.66 14.63 243.06 14.46 244.77 13.74 246.75 14.53 247.49 16.24 247.67 16.66 247.76 17.11 247.76 17.57 247.76 18.03 247.67 18.49 247.49 18.92 247.32 19.32 247.07 19.69 246.76 20 246.45 20.3 246.09 20.55 245.68 20.71 244.84 21.05 243.9 21.05 243.05 20.71 242.65 20.55 242.28 20.31 241.97 20 241.66 19.69 241.41 19.33 241.23 18.92 241.05 18.49 240.95 18.03 240.96 17.57 240.96 17.11 241.05 16.66 241.23 16.24L241.24 16.24ZM241.79 18.72C241.92 19.06 242.12 19.37 242.38 19.64 242.63 19.9 242.93 20.11 243.27 20.25 243.62 20.4 244 20.47 244.38 20.47 244.76 20.47 245.13 20.4 245.47 20.25 245.8 20.11 246.1 19.9 246.35 19.64 246.6 19.38 246.8 19.06 246.94 18.72 247.08 18.35 247.16 17.96 247.15 17.57 247.15 17.18 247.08 16.8 246.94 16.44 246.67 15.76 246.14 15.21 245.47 14.93 245.12 14.78 244.75 14.71 244.38 14.71 243.63 14.71 242.91 15 242.39 15.54 242.14 15.8 241.94 16.11 241.8 16.45 241.66 16.81 241.58 17.19 241.59 17.58 241.59 17.97 241.66 18.37 241.8 18.73L241.79 18.73ZM244.58 15.6C244.95 15.57 245.32 15.67 245.62 15.88 245.86 16.1 245.98 16.41 245.96 16.73 245.99 17.02 245.88 17.31 245.66 17.51 245.45 17.68 245.19 17.78 244.92 17.8L246.05 19.54 245.39 19.54 244.31 17.84 243.66 17.84 243.66 19.54 243.05 19.54 243.05 15.59 244.58 15.59 244.58 15.59ZM244.31 17.36C244.45 17.36 244.58 17.36 244.7 17.36 244.81 17.36 244.93 17.33 245.03 17.28 245.12 17.24 245.2 17.17 245.26 17.09 245.32 16.98 245.35 16.85 245.35 16.72 245.35 16.61 245.33 16.5 245.27 16.4 245.22 16.32 245.15 16.26 245.07 16.22 244.98 16.18 244.89 16.15 244.79 16.13 244.69 16.13 244.58 16.11 244.48 16.11L243.67 16.11 243.67 17.37 244.31 17.37 244.31 17.37Z"/><path d="M75.03 2.66C71.52-0.86 65.82-0.86 62.3 2.66L48.69 16.24C45.18 19.76 45.18 25.46 48.69 28.97 52.2 32.48 57.89 32.48 61.41 28.97L75.02 15.38C78.53 11.86 78.53 6.17 75.02 2.65L75.02 2.65Z" fill="#1100FF"/><path d="M75.02 62.29 61.41 48.7C57.89 45.19 52.19 45.19 48.68 48.7 45.17 52.21 45.17 57.92 48.68 61.43L62.29 75.01C63.97 76.7 66.26 77.65 68.65 77.64L68.65 77.64C73.62 77.64 77.65 73.61 77.65 68.64 77.65 66.25 76.7 63.96 75.01 62.27L75.01 62.29Z" fill="#1100FF"/><path d="M47.78 38.84 47.78 38.84 47.78 38.81C47.78 36.43 46.84 34.15 45.15 32.47L15.36 2.65C11.86-0.87 6.16-0.88 2.65 2.63-0.87 6.13-0.88 11.83 2.63 15.34L2.65 15.36 26.1 38.84 2.65 62.32C-0.86 65.83-0.86 71.53 2.65 75.04 6.16 78.55 11.86 78.55 15.37 75.04L45.16 45.22C46.85 43.54 47.79 41.26 47.79 38.89L47.79 38.86 47.79 38.86 47.79 38.84Z" fill="#1100FF"/><path d="M105.49 64.11 109.71 75.36 113.95 64.11 116.39 64.11 116.39 77.5 114.7 77.5 114.7 66.36 114.66 66.36 110.48 77.5 108.96 77.5 104.78 66.36 104.74 66.36 104.74 77.5 103.05 77.5 103.05 64.11 105.49 64.11 105.49 64.11Z"/><path d="M122.78 67.58C125.19 67.58 126.4 68.45 126.4 70.19L126.4 75.78C126.4 76.14 126.57 76.32 126.91 76.32 127.08 76.32 127.24 76.29 127.4 76.23L127.4 77.47C127.05 77.65 126.65 77.74 126.26 77.73 125.36 77.73 124.91 77.23 124.91 76.23 124.06 77.23 122.81 77.78 121.5 77.73 120.66 77.78 119.82 77.53 119.15 77.03 118.57 76.53 118.25 75.78 118.3 75.01 118.27 74.23 118.57 73.48 119.14 72.95 119.7 72.44 121.01 72.05 123.06 71.79 123.56 71.77 124.04 71.63 124.48 71.39 124.73 71.2 124.86 70.9 124.85 70.59 124.85 69.53 124.13 69 122.69 69 122.07 68.96 121.45 69.11 120.92 69.44 120.5 69.78 120.26 70.3 120.27 70.84L118.68 70.84C118.81 68.68 120.18 67.6 122.81 67.6L122.78 67.58ZM119.97 74.89C119.95 75.3 120.13 75.69 120.46 75.94 120.87 76.21 121.36 76.35 121.85 76.32 122.61 76.35 123.36 76.13 123.98 75.68 124.49 75.34 124.8 74.77 124.81 74.16L124.81 72.49C124.47 72.71 124.09 72.84 123.69 72.88L122.06 73.12C121.49 73.16 120.95 73.36 120.48 73.69 120.14 73.99 119.95 74.43 119.97 74.88L119.97 74.88Z"/><path d="M133.51 67.58C135.73 67.58 136.85 68.74 136.85 71.05L136.85 77.5 135.26 77.5 135.26 70.88C135.27 70.38 135.09 69.9 134.75 69.53 134.36 69.15 133.82 68.95 133.27 68.99 132.48 68.94 131.71 69.24 131.16 69.82 130.65 70.42 130.38 71.19 130.42 71.98L130.42 77.51 128.83 77.51 128.83 67.82 130.33 67.82 130.33 69.36 130.37 69.36C131 68.22 132.22 67.54 133.52 67.6L133.52 67.58Z"/><path d="M144.08 67.58C145.32 67.52 146.52 68.04 147.34 68.98 148.18 70.03 148.61 71.34 148.54 72.68 148.6 74.01 148.17 75.31 147.33 76.34 146.52 77.27 145.34 77.77 144.11 77.73 143.5 77.73 142.9 77.6 142.35 77.36 141.79 77.13 141.31 76.72 140.98 76.21L140.94 76.21 140.94 81.22 139.35 81.22 139.35 67.81 140.94 67.81 140.94 69.12 140.98 69.12C141.61 68.03 142.83 67.42 144.07 67.58L144.07 67.58ZM140.9 72.64C140.85 73.6 141.13 74.55 141.7 75.32 142.25 75.99 143.09 76.36 143.96 76.31 144.79 76.35 145.6 75.98 146.11 75.33 146.66 74.52 146.93 73.54 146.87 72.56 146.91 71.63 146.62 70.71 146.05 69.97 145.51 69.31 144.7 68.94 143.85 68.98 143.02 68.95 142.22 69.31 141.7 69.96 141.13 70.73 140.85 71.68 140.9 72.64Z"/><path d="M154.51 67.58C155.8 67.52 157.06 68.02 157.95 68.97 159.64 71.12 159.64 74.15 157.95 76.3 157.07 77.26 155.81 77.79 154.51 77.72 153.22 77.78 151.98 77.27 151.09 76.34 150.2 75.33 149.74 74 149.81 72.66 149.74 71.31 150.19 69.98 151.08 68.96 151.97 68.02 153.23 67.52 154.52 67.58L154.52 67.58ZM151.49 72.66C151.45 73.61 151.75 74.55 152.33 75.3 153.34 76.5 155.13 76.65 156.33 75.64 156.45 75.54 156.56 75.43 156.67 75.3 157.27 74.55 157.57 73.61 157.52 72.65 157.56 71.69 157.26 70.75 156.68 70 156.15 69.33 155.34 68.95 154.49 68.98 153.65 68.97 152.86 69.35 152.34 70.01 151.75 70.76 151.45 71.7 151.49 72.65L151.49 72.65Z"/><path d="M161.5 67.81 163.69 75.74 163.73 75.74 165.68 67.81 167.42 67.81 169.46 75.74 169.48 75.74 171.65 67.81 173.3 67.81 170.23 77.48 170.21 77.5 168.52 77.5 166.53 69.79 166.51 69.79 164.56 77.5 162.84 77.5 159.73 67.81 161.5 67.81Z"/><path d="M178.3 67.58C179.55 67.52 180.75 68.08 181.52 69.06 182.34 70.18 182.75 71.55 182.68 72.94L182.68 73.13 175.42 73.13 175.42 73.24C175.38 74.06 175.67 74.87 176.23 75.48 176.82 76.06 177.62 76.36 178.44 76.31 179.65 76.45 180.75 75.61 180.95 74.42L182.53 74.42C182.39 75.39 181.88 76.27 181.12 76.89 180.33 77.47 179.36 77.76 178.38 77.72 177.05 77.81 175.76 77.25 174.91 76.22 174.11 75.18 173.69 73.9 173.73 72.58 173.69 71.26 174.15 69.98 175.02 69 175.84 68.07 177.04 67.55 178.28 67.58L178.3 67.58ZM181 71.73C180.97 70.99 180.67 70.29 180.15 69.77 179.63 69.25 178.92 68.97 178.19 68.99 177.49 68.97 176.81 69.24 176.31 69.73 175.78 70.26 175.47 70.97 175.43 71.73L181 71.73Z"/><path d="M189.38 67.58 189.38 69.27C188.4 69.19 187.43 69.53 186.73 70.22 186.09 71.07 185.79 72.12 185.88 73.17L185.88 77.5 184.29 77.5 184.29 67.81 185.79 67.81 185.79 69.85 185.83 69.85C186.36 68.47 187.69 67.57 189.17 67.58L189.4 67.58 189.38 67.58Z"/><path d="M197.31 63.79C198.7 63.73 200.07 64.13 201.22 64.92 202.26 65.72 202.93 66.92 203.07 68.23L201.29 68.23C201.16 67.36 200.7 66.58 200 66.05 199.21 65.51 198.27 65.25 197.32 65.29 196.03 65.25 194.79 65.82 193.98 66.83 193.09 68.02 192.64 69.49 192.72 70.97 192.67 72.35 193.12 73.7 193.99 74.78 194.8 75.79 196.03 76.36 197.32 76.32 198.46 76.36 199.56 75.95 200.39 75.18 201.21 74.4 201.66 73.3 201.61 72.16L201.61 71.95 197.34 71.95 197.34 70.45 203.21 70.45 203.21 77.5 202.09 77.5 201.62 75.83C201.13 76.47 200.5 76.97 199.76 77.3 198.99 77.65 198.16 77.82 197.32 77.82 195.59 77.86 193.93 77.15 192.76 75.87 191.55 74.57 190.89 72.85 190.94 71.07 190.86 69.18 191.46 67.32 192.64 65.84 193.8 64.47 195.53 63.71 197.32 63.8L197.31 63.8Z"/><path d="M210.81 67.58 210.81 69.27C209.83 69.19 208.86 69.53 208.16 70.22 207.52 71.07 207.22 72.12 207.31 73.17L207.31 77.5 205.72 77.5 205.72 67.81 207.22 67.81 207.22 69.85 207.26 69.85C207.79 68.47 209.12 67.57 210.6 67.58L210.83 67.58 210.81 67.58Z"/><path d="M215.76 67.58C217.05 67.52 218.31 68.02 219.2 68.97 220.89 71.12 220.89 74.15 219.2 76.3 218.32 77.26 217.06 77.79 215.76 77.72 214.47 77.78 213.23 77.27 212.34 76.34 211.45 75.33 210.99 74 211.06 72.66 210.99 71.31 211.44 69.98 212.33 68.96 213.22 68.02 214.48 67.52 215.77 67.58L215.77 67.58ZM212.74 72.66C212.7 73.61 213 74.55 213.58 75.3 214.59 76.5 216.38 76.65 217.58 75.64 217.7 75.54 217.81 75.43 217.92 75.3 218.52 74.55 218.82 73.61 218.77 72.65 218.81 71.69 218.51 70.75 217.93 70 217.4 69.33 216.59 68.95 215.74 68.98 214.9 68.97 214.11 69.35 213.59 70.01 213 70.76 212.7 71.7 212.74 72.65L212.74 72.65Z"/><path d="M223.71 67.81 223.71 74.41C223.69 74.92 223.88 75.42 224.23 75.79 224.62 76.16 225.14 76.35 225.67 76.32 226.47 76.38 227.25 76.07 227.81 75.5 228.32 74.9 228.58 74.13 228.54 73.34L228.54 67.81 230.13 67.81 230.13 77.5 228.63 77.5 228.63 75.96 228.59 75.96C227.97 77.11 226.74 77.8 225.44 77.72 223.22 77.72 222.1 76.57 222.1 74.27L222.1 67.8 223.71 67.8Z"/><path d="M236.99 67.58C238.23 67.52 239.44 68.04 240.25 68.98 241.09 70.03 241.52 71.34 241.45 72.68 241.51 74.01 241.08 75.31 240.24 76.34 239.43 77.27 238.25 77.78 237.02 77.73 236.41 77.73 235.81 77.6 235.26 77.36 234.7 77.13 234.22 76.72 233.89 76.21L233.85 76.21 233.85 81.22 232.26 81.22 232.26 67.81 233.85 67.81 233.85 69.12 233.89 69.12C234.52 68.03 235.74 67.42 236.98 67.58L236.98 67.58ZM233.8 72.64C233.75 73.6 234.03 74.55 234.6 75.32 235.15 75.99 235.99 76.36 236.86 76.31 237.69 76.35 238.5 75.98 239.01 75.33 239.56 74.52 239.83 73.54 239.77 72.56 239.81 71.63 239.52 70.71 238.95 69.97 238.41 69.31 237.6 68.94 236.75 68.98 235.92 68.95 235.12 69.31 234.6 69.96 234.03 70.73 233.75 71.68 233.8 72.64Z"/><path d="M124.6 14.53 124.6 18.05 107.09 18.05 107.09 28.04 123.41 28.04 123.41 31.56 107.09 31.56 107.09 42.43 124.73 42.43 124.73 45.95 102.91 45.95 102.91 14.53 124.6 14.53 124.6 14.53Z"/><path d="M133.05 23.2 138.46 31.12 138.5 31.12 144.18 23.2 148.67 23.2 140.84 33.67 149.64 45.95 144.84 45.95 138.5 36.53 132.16 45.95 127.63 45.95 136.17 33.98 128.25 23.2 133.05 23.2 133.05 23.2Z"/><path d="M163.19 22.67C166.11 22.54 168.93 23.74 170.85 25.95 172.82 28.41 173.82 31.5 173.67 34.64 173.82 37.75 172.81 40.81 170.83 43.22 168.94 45.39 166.16 46.59 163.28 46.48 161.86 46.48 160.45 46.19 159.14 45.62 157.82 45.07 156.69 44.12 155.93 42.91L155.84 42.91 155.84 54.66 152.1 54.66 152.1 23.2 155.84 23.2 155.84 26.28 155.93 26.28C157.13 23.87 159.55 22.67 163.19 22.67L163.19 22.67ZM155.71 34.55C155.59 36.8 156.25 39.02 157.58 40.84 158.88 42.42 160.84 43.28 162.88 43.17 164.84 43.27 166.72 42.41 167.92 40.86 169.22 38.95 169.84 36.67 169.7 34.37 169.8 32.18 169.12 30.03 167.79 28.3 166.53 26.75 164.61 25.89 162.62 25.97 160.67 25.89 158.81 26.74 157.58 28.26 156.24 30.07 155.58 32.3 155.71 34.55L155.71 34.55Z"/><path d="M186.95 22.67C189.89 22.54 192.71 23.83 194.52 26.15 196.44 28.79 197.4 32 197.25 35.26L197.25 35.7 180.22 35.7 180.22 35.96C180.12 37.9 180.8 39.79 182.11 41.22 183.49 42.57 185.37 43.28 187.3 43.18 190.56 43.18 192.52 41.7 193.2 38.74L196.9 38.74C196.56 41.01 195.39 43.08 193.6 44.53 191.74 45.89 189.48 46.58 187.18 46.49 183.6 46.49 180.89 45.32 179.04 42.97 177.16 40.53 176.18 37.51 176.27 34.43 176.17 31.34 177.25 28.33 179.31 26.03 181.24 23.84 184.05 22.62 186.97 22.69L186.95 22.67ZM193.28 32.39C193.21 30.66 192.5 29.02 191.28 27.79 190.06 26.57 188.4 25.91 186.68 25.96 185.04 25.92 183.45 26.55 182.28 27.7 181.03 28.95 180.3 30.62 180.21 32.39L193.28 32.39Z"/><path d="M212.64 22.67 212.64 26.63C209.82 26.63 207.75 27.37 206.41 28.85 205.08 30.33 204.41 32.64 204.41 35.78L204.41 45.94 200.67 45.94 200.67 23.19 204.19 23.19 204.19 27.99 204.28 27.99C206.01 24.44 208.62 22.67 212.11 22.67L212.64 22.67Z"/><path d="M219.64 14.53 219.64 19.11 215.9 19.11 215.9 14.53 219.64 14.53ZM219.64 23.2 219.64 45.95 215.9 45.95 215.9 23.2 219.64 23.2Z"/><path d="M232.49 22.67C235.57 22.67 237.85 23.26 239.33 24.45 240.88 25.79 241.78 27.74 241.77 29.8L238.03 29.8 238.03 29.76C237.97 28.62 237.37 27.58 236.42 26.94 235.32 26.25 234.04 25.92 232.75 25.97 231.52 25.91 230.3 26.17 229.21 26.72 228.03 27.34 227.57 28.8 228.19 29.99 228.39 30.37 228.69 30.7 229.06 30.93 230.13 31.56 231.31 32 232.54 32.23L236.06 33.02C237.89 33.35 239.61 34.11 241.08 35.24 242.24 36.26 242.87 37.76 242.8 39.31 242.89 41.4 241.91 43.38 240.2 44.59 238.1 45.96 235.62 46.62 233.12 46.48 230.67 46.61 228.24 45.94 226.21 44.57 224.45 43.17 223.44 41.03 223.48 38.78L227.22 38.78C227.22 40.07 227.84 41.28 228.89 42.04 230.21 42.88 231.77 43.28 233.33 43.18 237 43.18 238.83 42.05 238.83 39.79 238.84 38.81 238.33 37.91 237.49 37.41 235.68 36.52 233.74 35.91 231.75 35.61 229.6 35.31 227.55 34.51 225.77 33.28 224.56 32.26 223.89 30.73 223.97 29.14 223.93 27.29 224.79 25.54 226.28 24.45 228.1 23.18 230.29 22.55 232.51 22.67L232.49 22.67Z"/></svg>