<svg viewBox="0 0 448 512" xmlns="http://www.w3.org/2000/svg" xmlns:xlink="http://www.w3.org/1999/xlink" overflow="hidden"><style>
.MsftOfcResponsive_Fill_dbe4ef {
 fill:#DBE4EF; 
}
</style>
<path d="M448 205.8C433.2 215.6 416.2 223.5 398.5 229.8 351.5 246.6 289.8 256 224 256 158.2 256 96.4 246.5 49.5 229.8 31.9 223.5 14.8 215.6 0 205.8L0 288C0 332.2 100.3 368 224 368 347.7 368 448 332.2 448 288L448 205.8ZM448 128 448 80C448 35.8 347.7 0 224 0 100.3 0 0 35.8 0 80L0 128C0 172.2 100.3 208 224 208 347.7 208 448 172.2 448 128ZM398.5 389.8C351.6 406.5 289.9 416 224 416 158.1 416 96.4 406.5 49.5 389.8 31.9 383.5 14.8 375.6 0 365.8L0 432C0 476.2 100.3 512 224 512 347.7 512 448 476.2 448 432L448 365.8C433.2 375.6 416.2 383.5 398.5 389.8Z" class="MsftOfcResponsive_Fill_dbe4ef" fill="#D0DFE6"/></svg>