<svg viewBox="0 0 512 512" xmlns="http://www.w3.org/2000/svg" xmlns:xlink="http://www.w3.org/1999/xlink" overflow="hidden"><style>
.MsftOfcResponsive_Fill_dbe4ef {
 fill:#DBE4EF; 
}
</style>
<path d="M256 0C291.346-1.42109e-14 320 28.6538 320 64 320 99.3462 291.346 128 256 128 220.654 128 192 99.3462 192 64 192 28.6538 220.654-7.10543e-15 256-7.10543e-15ZM352 312C352 337 339.3 359 320 371.9L320 464C320 490.5 298.5 512 272 512L240 512C213.5 512 192 490.5 192 464L192 371.9C172.7 359 160 337 160 312L160 272C160 219 203 176 256 176 309 176 352 219 352 272L352 312ZM96 32C126.928 32 152 57.0721 152 88 152 118.928 126.928 144 96 144 65.0721 144 40 118.928 40 88 40 57.0721 65.0721 32 96 32ZM112 272 112 304C112 336.5 124.1 366.1 144 388.7L144 464C144 465.2 144 466.5 144.1 467.7 135.6 475.3 124.4 480 112 480L80 480C53.5 480 32 458.5 32 432L32 375.4C12.9 364.4 0 343.7 0 320L0 288C0 235 43 192 96 192 108.7 192 120.8 194.5 131.9 198.9 119.3 220.3 112 245.3 112 272ZM368 464 368 388.7C387.9 366.2 400 336.5 400 304L400 272C400 245.3 392.7 220.4 380.1 198.9 391.2 194.4 403.3 192 416 192 469 192 512 235 512 288L512 320C512 343.7 499.1 364.4 480 375.4L480 432C480 458.5 458.5 480 432 480L400 480C387.7 480 376.4 475.4 367.9 467.7 367.9 466.5 368 465.2 368 464ZM416 32C446.928 32 472 57.0721 472 88 472 118.928 446.928 144 416 144 385.072 144 360 118.928 360 88 360 57.0721 385.072 32 416 32Z" class="MsftOfcResponsive_Fill_dbe4ef" fill="#D0DFE6"/></svg>