<svg width="40" height="40" viewBox="0 0 40 40" xmlns="http://www.w3.org/2000/svg" xmlns:xlink="http://www.w3.org/1999/xlink" id="Bulb-1--Streamline-Ultimate" overflow="hidden"><path d="M25 28.7317 25 33.2583C25 35.635 23 36.5917 20 36.5917 17 36.5917 15 35.635 15 33.2583L15 28.7317" stroke="#000000" stroke-width="1" stroke-linecap="round" stroke-linejoin="round" fill="none"/><path d="M21.6667 29.0917 21.6667 19.0917C21.6667 18.1712 22.4129 17.425 23.3333 17.425 24.2538 17.425 25 18.1712 25 19.0917 25 20.0121 24.2538 20.7583 23.3333 20.7583L16.6667 20.7583C15.7462 20.7583 15 20.0121 15 19.0917 15 18.1712 15.7462 17.425 16.6667 17.425 17.5408 17.3787 18.287 18.0497 18.3333 18.9239 18.3363 18.9798 18.3363 19.0358 18.3333 19.0917L18.3333 29.0917" stroke="#000000" stroke-width="1" stroke-linecap="round" stroke-linejoin="round" fill="none"/><path d="M24.1667 29.0917C28.254 27.4713 30.9096 23.4878 30.8333 19.0917 30.7275 13.153 25.9387 8.36418 20 8.25833 14.0613 8.36418 9.27251 13.153 9.16667 19.0917 9.09035 23.4878 11.746 27.4713 15.8333 29.0917Z" stroke="#000000" stroke-width="1" stroke-linecap="round" stroke-linejoin="round" fill="none"/><path d="M15 32.425 25 32.425" stroke="#000000" stroke-width="1" stroke-linecap="round" stroke-linejoin="round" fill="none"/><path d="M20 0.908333 20 4.09167" stroke="#000000" stroke-width="1" stroke-linecap="round" stroke-linejoin="round" fill="none"/><path d="M20 36.5917 20 39.0917" stroke="#000000" stroke-width="1" stroke-linecap="round" stroke-linejoin="round" fill="none"/><path d="M1.66667 17.425 5.485 17.425" stroke="#000000" stroke-width="1" stroke-linecap="round" stroke-linejoin="round" fill="none"/><path d="M5.985 5.075 9.16667 8.25833" stroke="#000000" stroke-width="1" stroke-linecap="round" stroke-linejoin="round" fill="none"/><path d="M38.3333 17.425 34.515 17.425" stroke="#000000" stroke-width="1" stroke-linecap="round" stroke-linejoin="round" fill="none"/><path d="M34.015 5.075 30.8333 8.25833" stroke="#000000" stroke-width="1" stroke-linecap="round" stroke-linejoin="round" fill="none"/></svg>