<svg viewBox="0 0 512 512" xmlns="http://www.w3.org/2000/svg" xmlns:xlink="http://www.w3.org/1999/xlink" overflow="hidden"><style>
.MsftOfcResponsive_Fill_dbe4ef {
 fill:#DBE4EF; 
}
</style>
<path d="M64 64C64 46.3 49.7 32 32 32 14.3 32 0 46.3 0 64L0 400C0 444.2 35.8 480 80 480L480 480C497.7 480 512 465.7 512 448 512 430.3 497.7 416 480 416L80 416C71.2 416 64 408.8 64 400L64 64ZM470.6 150.6C483.1 138.1 483.1 117.8 470.6 105.3 458.1 92.8 437.8 92.8 425.3 105.3L320 210.7 262.6 153.4C250.1 140.9 229.8 140.9 217.3 153.4L121.3 249.4C108.8 261.9 108.8 282.2 121.3 294.7 133.8 307.2 154.1 307.2 166.6 294.7L240 221.3 297.4 278.7C309.9 291.2 330.2 291.2 342.7 278.7L470.7 150.7Z" class="MsftOfcResponsive_Fill_dbe4ef" fill="#D0DFE6"/></svg>