<svg viewBox="0 0 640 512" xmlns="http://www.w3.org/2000/svg" xmlns:xlink="http://www.w3.org/1999/xlink" overflow="hidden"><style>
.MsftOfcResponsive_Fill_dbe4ef {
 fill:#DBE4EF; 
}
</style>
<path d="M352 0C352-17.7 337.7-32 320-32 302.3-32 288-17.7 288 0L288 64 192 64C139 64 96 107 96 160L96 384C96 437 139 480 192 480L448 480C501 480 544 437 544 384L544 160C544 107 501 64 448 64L352 64 352 0ZM160 368C160 354.7 170.7 344 184 344L216 344C229.3 344 240 354.7 240 368 240 381.3 229.3 392 216 392L184 392C170.7 392 160 381.3 160 368ZM280 368C280 354.7 290.7 344 304 344L336 344C349.3 344 360 354.7 360 368 360 381.3 349.3 392 336 392L304 392C290.7 392 280 381.3 280 368ZM400 368C400 354.7 410.7 344 424 344L456 344C469.3 344 480 354.7 480 368 480 381.3 469.3 392 456 392L424 392C410.7 392 400 381.3 400 368ZM224 176C250.51 176 272 197.49 272 224 272 250.51 250.51 272 224 272 197.49 272 176 250.51 176 224 176 197.49 197.49 176 224 176ZM368 224C368 197.49 389.49 176 416 176 442.51 176 464 197.49 464 224 464 250.51 442.51 272 416 272 389.49 272 368 250.51 368 224ZM64 224C64 206.3 49.7 192 32 192 14.3 192 0 206.3 0 224L0 320C0 337.7 14.3 352 32 352 49.7 352 64 337.7 64 320L64 224ZM608 192C590.3 192 576 206.3 576 224L576 320C576 337.7 590.3 352 608 352 625.7 352 640 337.7 640 320L640 224C640 206.3 625.7 192 608 192Z" class="MsftOfcResponsive_Fill_dbe4ef" fill="#D0DFE6"/></svg>