<svg viewBox="0 0 60 60" xmlns="http://www.w3.org/2000/svg" xmlns:xlink="http://www.w3.org/1999/xlink" id="a" overflow="hidden"><style>
.MsftOfcThm_Accent5_Fill_v2 {
 fill:#5C4BB7; 
}
.MsftOfcThm_Accent5_Stroke_v2 {
 stroke:#5C4BB7; 
}
</style>
<path d="M53.956 15.996 59 15.996C59.276 15.996 59.5 15.772 59.5 15.496 59.5 15.22 59.276 14.996 59 14.996L53.956 14.996C52.526 14.996 51.33 15.998 51.019 17.335L38.746 12.883C37.052 12.265 35.15 12.368 33.531 13.173L26.424 16.725 25.723 16.152C24.066 14.923 21.935 14.647 20.019 15.411L9.065 19.801 9.065 18.018C9.065 16.352 7.71 14.997 6.044 14.997L1 14.997C0.724 14.997 0.5 15.221 0.5 15.497 0.5 15.773 0.724 15.997 1 15.997L6.044 15.997C7.158 15.997 8.065 16.904 8.065 18.018L8.065 35.67C8.065 36.784 7.158 37.691 6.044 37.691L1 37.691C0.724 37.691 0.5 37.915 0.5 38.191 0.5 38.467 0.724 38.691 1 38.691L6.044 38.691C7.539 38.691 8.775 37.597 9.015 36.17L14.646 36.17 23.544 46.144C24.233 46.945 25.193 47.43 26.248 47.508 26.349 47.516 26.449 47.52 26.549 47.52 27.495 47.52 28.401 47.185 29.125 46.561 29.999 45.808 30.5 44.714 30.5 43.561L30.5 42.707C31.619 43.089 32.821 43.046 33.916 42.574 35.086 42.072 35.991 41.143 36.464 39.961 36.592 39.641 36.674 39.31 36.729 38.973L50.994 36.263C51.27 37.646 52.492 38.692 53.956 38.692L59 38.692C59.276 38.692 59.5 38.468 59.5 38.192 59.5 37.916 59.276 37.692 59 37.692L53.956 37.692C52.842 37.692 51.935 36.785 51.935 35.671L51.935 18.017C51.935 16.903 52.842 15.996 53.956 15.996ZM33.977 14.068C35.351 13.385 36.965 13.297 38.403 13.822L50.934 18.368 50.934 35.256 40.802 37.181C41.444 36.432 41.847 35.472 41.847 34.41 41.847 33.489 41.542 32.576 40.985 31.833L33.342 22.04 36.46 21.015C36.723 20.929 36.865 20.647 36.778 20.384 36.692 20.122 36.409 19.977 36.147 20.066L27.157 23.021C26.523 23.223 25.848 23.171 25.255 22.867 24.662 22.564 24.224 22.048 24.019 21.414 23.639 20.238 24.165 18.98 25.265 18.424L33.977 14.07ZM33.521 41.654C32.597 42.051 31.572 42.065 30.636 41.691L30.281 41.549 27.831 39.098C27.636 38.903 27.319 38.903 27.124 39.098 26.929 39.293 26.929 39.61 27.124 39.805L29.499 42.181 29.499 43.56C29.499 44.422 29.124 45.24 28.472 45.802 27.873 46.318 27.117 46.572 26.322 46.51 25.534 46.451 24.817 46.089 24.296 45.484L15.242 35.337C15.147 35.231 15.012 35.17 14.869 35.17L9.065 35.17 9.065 20.877 20.39 16.339C21.982 15.705 23.752 15.936 25.109 16.94L25.445 17.215 24.817 17.529C23.272 18.31 22.537 20.073 23.069 21.719 23.355 22.608 23.97 23.33 24.8 23.756 25.631 24.182 26.578 24.258 27.468 23.97L32.333 22.371 40.192 32.44C40.615 33.004 40.848 33.704 40.848 34.41 40.848 36.22 39.375 37.692 37.566 37.692L36.512 37.692 32.875 34.056C32.68 33.861 32.363 33.861 32.168 34.056 31.973 34.251 31.973 34.568 32.168 34.763L35.787 38.381C35.766 38.796 35.691 39.202 35.536 39.589 35.162 40.524 34.446 41.258 33.521 41.654Z" class="MsftOfcThm_Accent5_Fill_v2 MsftOfcThm_Accent5_Stroke_v2" stroke="#5C4BB7" stroke-width="0.888889" stroke-linecap="butt" stroke-linejoin="miter" stroke-miterlimit="4" stroke-opacity="1" fill="#5C4BB7" fill-opacity="1"/></svg>