<svg viewBox="0 0 60 60" xmlns="http://www.w3.org/2000/svg" xmlns:xlink="http://www.w3.org/1999/xlink" id="a" overflow="hidden"><style>
.MsftOfcThm_Accent5_Fill_v2 {
 fill:#5C4BB7; 
}
.MsftOfcThm_Accent5_Stroke_v2 {
 stroke:#5C4BB7; 
}
</style>
<path d="M30 28.239C29.724 28.239 29.5 28.463 29.5 28.739L29.5 34.836 23.973 40.363C23.778 40.558 23.778 40.875 23.973 41.07 24.071 41.168 24.199 41.216 24.327 41.216 24.455 41.216 24.583 41.167 24.681 41.07L30.001 35.75 35.321 41.07C35.419 41.168 35.547 41.216 35.675 41.216 35.803 41.216 35.931 41.167 36.029 41.07 36.224 40.875 36.224 40.558 36.029 40.363L30.502 34.836 30.502 28.739C30.502 28.463 30.278 28.239 30.002 28.239Z" class="MsftOfcThm_Accent5_Fill_v2 MsftOfcThm_Accent5_Stroke_v2" stroke="#5C4BB7" stroke-width="0.97561" stroke-linecap="butt" stroke-linejoin="miter" stroke-miterlimit="4" stroke-opacity="1" fill="#5C4BB7" fill-opacity="1"/><path d="M30 12.848C33.404 12.848 36.174 10.078 36.174 6.674 36.174 3.27 33.404 0.5 30 0.5 26.596 0.5 23.826 3.27 23.826 6.674 23.826 10.078 26.596 12.848 30 12.848ZM30 1.5C32.853 1.5 35.174 3.821 35.174 6.674 35.174 9.527 32.853 11.848 30 11.848 27.147 11.848 24.826 9.527 24.826 6.674 24.826 3.821 27.147 1.5 30 1.5Z" class="MsftOfcThm_Accent5_Fill_v2 MsftOfcThm_Accent5_Stroke_v2" stroke="#5C4BB7" stroke-width="0.97561" stroke-linecap="butt" stroke-linejoin="miter" stroke-miterlimit="4" stroke-opacity="1" fill="#5C4BB7" fill-opacity="1"/><path d="M18.652 24.196 41.347 24.196C41.501 24.196 41.647 24.125 41.742 24.003 41.837 23.881 41.869 23.722 41.831 23.573 41.025 20.412 39.037 17.755 36.232 16.09 33.428 14.425 30.142 13.951 26.982 14.758 22.649 15.862 19.272 19.24 18.167 23.573 18.129 23.722 18.162 23.882 18.256 24.003 18.351 24.125 18.497 24.196 18.651 24.196ZM27.23 15.726C30.134 14.988 33.148 15.421 35.723 16.949 38.111 18.366 39.855 20.569 40.685 23.196L19.315 23.196C20.482 19.519 23.462 16.687 27.23 15.726Z" class="MsftOfcThm_Accent5_Fill_v2 MsftOfcThm_Accent5_Stroke_v2" stroke="#5C4BB7" stroke-width="0.97561" stroke-linecap="butt" stroke-linejoin="miter" stroke-miterlimit="4" stroke-opacity="1" fill="#5C4BB7" fill-opacity="1"/><path d="M12.348 48.152C15.752 48.152 18.522 45.382 18.522 41.978 18.522 38.574 15.752 35.804 12.348 35.804 8.944 35.804 6.174 38.574 6.174 41.978 6.174 45.382 8.944 48.152 12.348 48.152ZM12.348 36.804C15.201 36.804 17.522 39.125 17.522 41.978 17.522 44.831 15.201 47.152 12.348 47.152 9.495 47.152 7.174 44.831 7.174 41.978 7.174 39.125 9.495 36.804 12.348 36.804Z" class="MsftOfcThm_Accent5_Fill_v2 MsftOfcThm_Accent5_Stroke_v2" stroke="#5C4BB7" stroke-width="0.97561" stroke-linecap="butt" stroke-linejoin="miter" stroke-miterlimit="4" stroke-opacity="1" fill="#5C4BB7" fill-opacity="1"/><path d="M1 59.5 23.696 59.5C23.85 59.5 23.996 59.429 24.091 59.307 24.186 59.185 24.218 59.026 24.18 58.877 23.374 55.716 21.386 53.059 18.581 51.394 15.775 49.728 12.489 49.255 9.331 50.062 4.998 51.167 1.621 54.544 0.516 58.877 0.478 59.026 0.511 59.186 0.605 59.307 0.7 59.429 0.846 59.5 1 59.5ZM9.578 51.03C12.48 50.292 15.496 50.725 18.071 52.253 20.459 53.671 22.203 55.873 23.033 58.5L1.663 58.5C2.83 54.824 5.81 51.991 9.578 51.03Z" class="MsftOfcThm_Accent5_Fill_v2 MsftOfcThm_Accent5_Stroke_v2" stroke="#5C4BB7" stroke-width="0.97561" stroke-linecap="butt" stroke-linejoin="miter" stroke-miterlimit="4" stroke-opacity="1" fill="#5C4BB7" fill-opacity="1"/><path d="M47.652 48.152C51.056 48.152 53.826 45.382 53.826 41.978 53.826 38.574 51.056 35.804 47.652 35.804 44.248 35.804 41.478 38.574 41.478 41.978 41.478 45.382 44.248 48.152 47.652 48.152ZM47.652 36.804C50.505 36.804 52.826 39.125 52.826 41.978 52.826 44.831 50.505 47.152 47.652 47.152 44.799 47.152 42.478 44.831 42.478 41.978 42.478 39.125 44.799 36.804 47.652 36.804Z" class="MsftOfcThm_Accent5_Fill_v2 MsftOfcThm_Accent5_Stroke_v2" stroke="#5C4BB7" stroke-width="0.97561" stroke-linecap="butt" stroke-linejoin="miter" stroke-miterlimit="4" stroke-opacity="1" fill="#5C4BB7" fill-opacity="1"/><path d="M44.635 50.062C40.302 51.167 36.925 54.544 35.82 58.877 35.782 59.026 35.815 59.186 35.909 59.307 36.004 59.429 36.15 59.5 36.304 59.5L59 59.5C59.154 59.5 59.3 59.429 59.395 59.307 59.49 59.185 59.522 59.026 59.484 58.877 57.821 52.353 51.161 48.397 44.634 50.062ZM58.338 58.5 36.967 58.5C38.134 54.824 41.115 51.991 44.882 51.03 50.663 49.558 56.558 52.885 58.338 58.5Z" class="MsftOfcThm_Accent5_Fill_v2 MsftOfcThm_Accent5_Stroke_v2" stroke="#5C4BB7" stroke-width="0.97561" stroke-linecap="butt" stroke-linejoin="miter" stroke-miterlimit="4" stroke-opacity="1" fill="#5C4BB7" fill-opacity="1"/></svg>