<svg width="40" height="40" viewBox="0 0 40 40" xmlns="http://www.w3.org/2000/svg" xmlns:xlink="http://www.w3.org/1999/xlink" id="Performance-Tablet-Increase--Streamline-Ultimate" overflow="hidden"><g><g><path d="M39.1667 39.1667 35 33.45 35 25.8333C35.0833 22.8667 30.7 19.4 27.5 16.6667" stroke="#000000" stroke-width="1" stroke-linecap="round" stroke-linejoin="round" fill="none"/><path d="M30.8667 29.1667 26.3833 24.55C25.693 23.8596 24.5737 23.8596 23.8833 24.55 23.193 25.2404 23.193 26.3596 23.8833 27.05L28.3333 32.5 28.3333 35C28.3333 36.6667 30.9333 39.1667 30.9333 39.1667" stroke="#000000" stroke-width="1" stroke-linecap="round" stroke-linejoin="round" fill="none"/></g><path d="M23.3333 34.1667 2.5 34.1667C1.57953 34.1667 0.833333 33.4205 0.833333 32.5L0.833333 2.5C0.833333 1.57953 1.57953 0.833333 2.5 0.833333L25.8333 0.833333C26.7538 0.833333 27.5 1.57953 27.5 2.5L27.5 25.7" stroke="#000000" stroke-width="1" stroke-linecap="round" stroke-linejoin="round" fill="none"/><path d="M15.8333 5.83333 20.8333 5.83333 20.8333 10.8333" stroke="#000000" stroke-width="1" stroke-linecap="round" stroke-linejoin="round" fill="none"/><path d="M20.8333 5.83333 6.66667 19.1667" stroke="#000000" stroke-width="1" stroke-linecap="round" stroke-linejoin="round" fill="none"/><path d="M7.5 23.3333 7.5 29.1667" stroke="#000000" stroke-width="1" stroke-linecap="round" stroke-linejoin="round" fill="none"/><path d="M12.5 19.1667 12.5 29.1667" stroke="#000000" stroke-width="1" stroke-linecap="round" stroke-linejoin="round" fill="none"/><path d="M17.5 15.8333 17.5 29.1667" stroke="#000000" stroke-width="1" stroke-linecap="round" stroke-linejoin="round" fill="none"/></g></svg>