<svg viewBox="0 0 96 96" xmlns="http://www.w3.org/2000/svg" xmlns:xlink="http://www.w3.org/1999/xlink" id="Icons_CustomerReview_LTR_M" overflow="hidden"><style>
.MsftOfcThm_Text1_Fill_v2 {
 fill:#282A32; 
}
</style>
<path d="M16 37 31 37 31 44 38 37 44 37 48 44 52 37 58 37 65 44 65 37 81 37C83.2091 37 85 35.2091 85 33L85 12C85 9.79086 83.2091 8 81 8L16 8C13.7909 8 12 9.79086 12 12L12 33C12 35.2091 13.7909 37 16 37ZM14 12C14 10.8954 14.8954 10 16 10L81 10C82.1046 10 83 10.8954 83 12L83 33C83 34.1046 82.1046 35 81 35L63 35 63 39.172 59.414 35.586 58.828 35 50.839 35 50.264 36.008 48 39.969 45.737 36.008 45.161 35 37.172 35 36.586 35.586 33 39.172 33 35 16 35C14.8954 35 14 34.1046 14 33Z" class="MsftOfcThm_Text1_Fill_v2" fill="#282A32"/><rect x="22" y="17" width="47" height="2" class="MsftOfcThm_Text1_Fill_v2" fill="#282A32"/><rect x="22" y="22" width="53" height="2" class="MsftOfcThm_Text1_Fill_v2" fill="#282A32"/><rect x="22" y="27" width="37" height="2" class="MsftOfcThm_Text1_Fill_v2" fill="#282A32"/><path d="M62.262 56.74C62.2631 61.0136 65.7284 64.4771 70.002 64.476 74.2756 64.4749 77.7391 61.0096 77.738 56.736 77.7369 52.4632 74.2728 49 70 49 65.7259 49.0006 62.2614 52.4659 62.262 56.74ZM75.738 56.74C75.7369 59.909 73.167 62.4771 69.998 62.476 66.829 62.4749 64.2609 59.905 64.262 56.736 64.2631 53.5678 66.8318 51 70 51 73.1682 51.0039 75.7352 53.5718 75.738 56.74Z" class="MsftOfcThm_Text1_Fill_v2" fill="#282A32"/><path d="M20.262 56.945C20.2631 61.2186 23.7284 64.6821 28.002 64.681 32.2756 64.6799 35.7391 61.2146 35.738 56.941 35.7369 52.6682 32.2728 49.205 28 49.205 23.7259 49.2056 20.2614 52.6709 20.262 56.945ZM33.738 56.945C33.7369 60.114 31.167 62.6821 27.998 62.681 24.829 62.6799 22.2609 60.11 22.262 56.941 22.2631 53.7728 24.8318 51.205 28 51.205 31.168 51.2094 33.7347 53.777 33.738 56.945Z" class="MsftOfcThm_Text1_Fill_v2" fill="#282A32"/><path d="M84.133 70.619C81.8597 68.8656 79.2546 67.5913 76.475 66.873 74.377 66.2279 72.195 65.8973 70 65.892 67.812 65.9275 65.6387 66.2561 63.538 66.869 60.7879 67.668 58.1958 68.9341 55.875 70.612 55.7238 70.7338 55.5796 70.864 55.443 71.002 55.643 71.058 55.843 71.102 56.049 71.162 56.657 71.335 57.239 71.527 57.81 71.728 59.7408 70.4447 61.8529 69.4577 64.076 68.8 66.0019 68.2381 67.9941 67.9354 70 67.9 72.0047 67.9059 73.9974 68.2092 75.913 68.8 78.4382 69.4459 80.8064 70.5963 82.875 72.182 83.5625 72.7135 83.9754 73.5254 84 74.394L84 80.794 86 80.794 86 74.394C85.9762 72.9191 85.2907 71.5331 84.133 70.619Z" class="MsftOfcThm_Text1_Fill_v2" fill="#282A32"/><path d="M40.058 71.8C40.701 71.558 41.346 71.339 41.989 71.156 42.126 71.119 42.253 71.093 42.389 71.056 42.305 70.979 42.224 70.899 42.134 70.828 39.861 69.0737 37.2558 67.7987 34.476 67.08 32.3775 66.4356 30.1952 66.1054 28 66.1 25.8121 66.1358 23.6389 66.464 21.538 67.076 18.7876 67.8747 16.1954 69.1413 13.875 70.82 12.7135 71.7341 12.025 73.1222 12 74.6L12 81 14 81 14 74.6C14.0186 73.7439 14.4174 72.9405 15.088 72.408 17.2093 70.8875 19.5717 69.7353 22.076 69 24.0019 68.4381 25.9941 68.1355 28 68.1 30.0046 68.1065 31.9972 68.4098 33.913 69 36.1026 69.5857 38.1793 70.532 40.058 71.8Z" class="MsftOfcThm_Text1_Fill_v2" fill="#282A32"/><path d="M63.133 76.825C60.86 75.0707 58.2548 73.7957 55.475 73.077 53.3767 72.4337 51.1947 72.1045 49 72.1 46.8121 72.1358 44.6389 72.464 42.538 73.076 39.7876 73.8747 37.1954 75.1413 34.875 76.82 33.7135 77.7341 33.025 79.1222 33 80.6L33 87 35 87 35 80.6C35.0186 79.7439 35.4174 78.9405 36.088 78.408 38.2093 76.8875 40.5717 75.7353 43.076 75 45.0019 74.4381 46.9941 74.1355 49 74.1 51.0046 74.1065 52.9972 74.4098 54.913 75 57.4381 75.6461 59.8063 76.7965 61.875 78.382 62.5641 78.9149 62.9771 79.7292 63 80.6L63 87 65 87 65 80.6C64.9766 79.125 64.291 77.7388 63.133 76.825Z" class="MsftOfcThm_Text1_Fill_v2" fill="#282A32"/><path d="M41.262 62.945C41.2631 67.2186 44.7284 70.6821 49.002 70.681 53.2756 70.6799 56.7391 67.2146 56.738 62.941 56.7369 58.6682 53.2728 55.205 49 55.205 44.7259 55.2056 41.2614 58.6709 41.262 62.945ZM54.738 62.945C54.7369 66.114 52.167 68.6821 48.998 68.681 45.829 68.6799 43.2609 66.11 43.262 62.941 43.2631 59.7728 45.8318 57.205 49 57.205 52.168 57.2094 54.7347 59.777 54.738 62.945Z" class="MsftOfcThm_Text1_Fill_v2" fill="#282A32"/></svg>