<svg width="1422" height="528" xmlns="http://www.w3.org/2000/svg" xmlns:xlink="http://www.w3.org/1999/xlink" overflow="hidden"><path d="M728 221 728 196 683 196 683 348 729 348 729 264C737 246 751 238 769 238L786 239 786 195 771 193C756 193 741 202 728 221M854 298C841.602 282.884 841.602 261.116 854 246 866.21 232.469 887.077 231.398 900.608 243.608 901.445 244.364 902.244 245.162 903 246 916 261 916 283 903 298 890.79 311.531 869.923 312.602 856.392 300.392 855.555 299.636 854.756 298.838 854 298M956 272C957 251 949 231 934 216 903.233 185.627 853.767 185.627 823 216 793.031 247.319 793.031 296.681 823 328 853.544 358.377 902.931 358.242 933.308 327.698 948.014 312.912 956.186 292.853 956 272ZM1194 258C1196 250 1200 243 1206 238 1211 234 1218 231 1225 231 1232 231 1239 234 1243 239 1249 244 1252 250 1253 258L1194 258ZM1226 193C1205 193 1186 201 1171 216 1156.38 230.911 1148.44 251.122 1149 272 1149 295 1156 314 1170 329 1185 344 1203 351 1226 351 1242 351 1255 348 1266 342 1277 336 1287 328 1296 318L1263 300C1254 308 1243 311 1229 311 1209 311 1197 303 1194 285L1299 285 1299 274C1299 251 1293 232 1279 217 1265.91 201.347 1246.4 192.512 1226 193M1407 193C1391 193 1377 202 1364 221L1364 196 1319 196 1319 348 1365 348 1365 264C1373 246 1386 238 1405 238L1422 239 1422 195 1407 193" fill="#084999"/><path d="M639 167 640 152C640 91.2487 688.353 42 748 42 807.647 42 856 91.2487 856 152L900 152C900.839 69.1573 833.467 1.32843 749.52 0.5 665.573-0.328427 596.839 66.1573 596 149L596 162C594 177 588 200 572 218 558.178 232.933 539.969 243.089 520 247L520 146 471 146 471 348 520 348 520 292C534 289 548 285 561 279L606 348 664 348 599 252 604 247C628 220 636 189 639 167M1076 296C1062.98 309.531 1041.46 309.945 1027.93 296.926 1027.61 296.623 1027.3 296.314 1027 296 1014.2 281.031 1014.2 258.969 1027 244 1040.02 230.469 1061.54 230.055 1075.07 243.074 1075.39 243.377 1075.7 243.686 1076 244 1089 259 1089 281 1076 296M1129 393 1129 196 1085 196 1085 209C1074.77 198.504 1060.65 192.712 1046 193 1027 193 1010 201 995 215 980.796 229.705 973.211 249.571 974 270 974 292 981 310 996 324 1011 338 1027 346 1046 346 1060 346 1074 341 1086 333L1086 393C1086 444.362 1044.36 486 993 486 941.638 486 900 444.362 900 393L857 393C855.871 466.454 915.844 526.895 990.955 528 1066.07 529.105 1127.87 470.454 1129 397L1129 393ZM1146 448C1155.11 445.74 1164.33 451.295 1166.59 460.407 1168.85 469.52 1163.3 478.74 1154.19 481 1151.5 481.667 1148.69 481.667 1146 481 1136.89 478.74 1131.33 469.52 1133.59 460.407 1135.11 454.292 1139.88 449.517 1146 448ZM1154 451C1146.62 448.696 1138.77 452.812 1136.46 460.192 1134.16 467.573 1138.28 475.424 1145.66 477.728 1148.04 478.471 1150.57 478.565 1153 478 1160.53 476.248 1165.22 468.723 1163.46 461.192 1162.34 456.357 1158.74 452.479 1154 451Z" fill="#084999"/><path d="M1156 456 1158 460 1156 464 1153 465 1158 473 1155 473 1150 466 1147 466 1147 473 1144 473 1144 455 1151 455 1156 456ZM1153 457 1147 457 1147 463 1154 463 1155 462 1155 459 1154 458 1153 457ZM339 299C353 299 365 311 365 325 365 339.359 353.359 351 339 351 324.641 351 313 339.359 313 325 313 311 325 299 339 299ZM125 299C139 299 151 311 151 325 151 339.359 139.359 351 125 351 110.641 351 99 339.359 99 325 99 311 111 299 125 299ZM0 43C59 46 99 87 105 149 111 218 172 270 240 263 301 257 348 207 352 147L395 147C390.746 236.26 317.36 306.569 228 307 143 307 70 241 62 153 59 113 36 90 0 87ZM231 153C233 153 235 154 236 156L276 227 277 231C277 233 275 234 274 235 246.719 248.486 214.871 249.218 187 237 185 237 184 235 184 234L184 229 226 156C227 154 229 153 231 153ZM200 147C202 147 204 148 205 150L205 156 169 219C167.482 221.945 163.863 223.102 160.918 221.584 160.595 221.418 160.288 221.222 160 221 141 204 128 181 124 156L124 153C124 149.686 126.686 147 130 147L200 147ZM326 147C327 147 329 147 330 149 331 150 332 152 331 153 328.124 176.912 317.19 199.132 300 216 299 218 297 218 295 218 293 218 292 217 291 215L257 156C255.341 153.131 256.322 149.461 259.191 147.803 260.047 147.308 261.012 147.032 262 147L326 147Z" fill="#084999"/></svg>